<svg xmlns="http://www.w3.org/2000/svg" width="256" height="256" viewBox="0 0 256 256"><path fill="#646cff" d="M256 128A128 128 0 1 1 0 128a128 128 0 0 1 256 0Z"/><path fill="#fff" d="M128 20a108 108 0 1 0 0 216V20Z"/><path fill="#646cff" d="M128 20a108 108 0 0 0 0 216V20Z"/><path fill="#fff" d="M164.5 98.4c-1.3-1.3-3.1-2.1-5-2.1h-12.8c-2 0-3.7.8-5 2.1l-25 25.4c-1.3 1.3-2.1 3.1-2.1 5v12.8c0 2 .8 3.7 2.1 5l25 25.4c1.3 1.3 3.1 2.1 5 2.1h12.8c2 0 3.7-.8 5-2.1l25.4-25.4c1.3-1.3 2.1-3.1 2.1-5v-12.8c0-2-.8-3.7-2.1-5l-25.4-25.4Z"/></svg>